inDegrees=yes
name=ik_lifting_orientations
DataType=double
version=3
OpenSimVersion=4.5-2024-01-10-34fd6af
endheader
time	pelvis_tilt	pelvis_list	pelvis_rotation	pelvis_tx	pelvis_ty	pelvis_tz	hip_flexion_r	hip_adduction_r	hip_rotation_r	knee_angle_r	knee_angle_r_beta	ankle_angle_r	subtalar_angle_r	mtp_angle_r	hip_flexion_l	hip_adduction_l	hip_rotation_l	knee_angle_l	knee_angle_l_beta	ankle_angle_l	subtalar_angle_l	mtp_angle_l	lumbar_extension	lumbar_bending	lumbar_rotation	arm_flex_r	arm_add_r	arm_rot_r	elbow_flex_r	pro_sup_r	wrist_flex_r	wrist_dev_r	arm_flex_l	arm_add_l	arm_rot_l	elbow_flex_l	pro_sup_l	wrist_flex_l	wrist_dev_l
1.49	0.0006962123467831957	0.002853627734391592	2.437442717113678	0	0.9399999999999999	0	44.14642584838465	-10.01582448329728	0	59.96633306225814	1.046609952283938	-5.00235946300778	0	0	44.14642584838465	-10.01582448329728	0	59.96633306225814	1.046609952283938	-5.00235946300778	0	0	-0.00794913291151338	-0.0002503384663704627	-0.002264673934431881	1.278495412579529	-7.011025597127616	-8.967505886349308	89.29635255071912	45.0099428994771	0	0	0	-12.75394677469969	0	75.07655455609384	45.0099428994771	0	0
1.5	-0.004496682695925524	-0.0001824585742163223	2.434436061904296	0	0.9399999999999999	0	44.14727519062794	-10.01578511463357	0	59.96636006695156	1.046610423604752	-5.002352941998369	0	0	44.14727519062794	-10.01578511463357	0	59.96636006695156	1.046610423604752	-5.002352941998369	0	0	-0.007538861814755156	0.00130479699444162	-0.005204400603188299	1.282178426783177	-7.008901413081531	-8.972228539476712	89.30279062491906	45.00992119878023	0	0	0	-12.75516025687385	0	75.07647856236251	45.00992119878023	0	0
1.51	-0.001540136319577263	-0.002561802939043076	2.434824528062254	0	0.9399999999999999	0	44.14883649657236	-10.01569059645908	0	59.96640879945686	1.046611274147422	-5.0023350442254	0	0	44.14883649657236	-10.01569059645908	0	59.96640879945686	1.046611274147422	-5.0023350442254	0	0	-0.005713003339248374	0.0006046317277760981	-0.005521658754884614	1.276776160385318	-7.012452493113674	-8.969675595286215	89.29431158463441	45.00987331218208	0	0	0	-12.75729159996264	0	75.07633887199496	45.00987331218208	0	0
1.52	-0.004153788224642921	0.0004918084203827346	2.436857860350647	0	0.9399999999999999	0	44.14967747806045	-10.01565133607202	0	59.96643553786734	1.046611740820722	-5.002328500605	0	0	44.14967747806045	-10.01565133607202	0	59.96643553786734	1.046611740820722	-5.002328500605	0	0	-0.004872611858530931	0.003883737265582675	-0.004928782200621258	1.281419838302929	-7.009010984892904	-8.970996382979758	89.30085491406956	45.00985173708527	0	0	0	-12.75849269493994	0	75.07626362639583	45.00985173708527	0	0
1.57	-0.0006212836561221897	-0.003635541184082736	2.434048147918656	0	0.9399999999999999	0	44.15075198447991	-10.01558803200562	0	59.96646917325135	1.046612327868918	-5.002316632533058	0	0	44.15075198447991	-10.01558803200562	0	59.96646917325135	1.046612327868918	-5.002316632533058	0	0	-0.005705746016283311	0.0007832148496125639	-0.004010026714503058	1.268259003327248	-7.011911949291339	-8.971652756582278	89.29854033649141	45.00981942721639	0	0	0	-12.75996850759211	0	75.07616748961964	45.00981942721639	0	0
1.59	-0.0001246482328292145	7.663894072941271e-05	2.435778802324342	0	0.9399999999999999	0	44.15168618852902	-10.01553924865106	0	59.96649868038504	1.046612842865554	-5.002307965737811	0	0	44.15168618852902	-10.01553924865106	0	59.96649868038504	1.046612842865554	-5.002307965737811	0	0	-0.002482744884444514	0.003329151052440423	-0.003557880978688965	1.274646947039036	-7.01115599600702	-8.970006524230154	89.29796211199348	45.00979361187341	0	0	0	-12.76128060743128	0	75.07608390424933	45.00979361187341	0	0
1.6	-0.001161940993489781	-0.0002226778226962162	2.435114300169986	0	0.9399999999999999	0	44.15242283225784	-10.01549984582018	0	59.96652189926047	1.046613248111379	-5.002300872983139	0	0	44.15242283225784	-10.01549984582018	0	59.96652189926047	1.046613248111379	-5.002300872983139	0	0	-0.002092797781563976	0.003588474846725488	-0.004118366780925514	1.275680432787688	-7.012185628891306	-8.968741926446045	89.29440827924195	45.00977292629207	0	0	0	-12.76231128634008	0	75.07601799526068	45.00977292629207	0	0
